<svg xmlns="http://www.w3.org/2000/svg" xmlns:xlink="http://www.w3.org/1999/xlink" width="500" zoomAndPan="magnify" viewBox="0 0 375 374.999991" height="500" preserveAspectRatio="xMidYMid meet" version="1.0"><defs><clipPath id="363e133943"><path d="M 51.195312 40.089844 L 316 40.089844 L 316 231 L 51.195312 231 Z M 51.195312 40.089844 " clip-rule="nonzero"/></clipPath><clipPath id="61385a67c5"><path d="M 184 207 L 323.445312 207 L 323.445312 328 L 184 328 Z M 184 207 " clip-rule="nonzero"/></clipPath><clipPath id="d04ad71949"><path d="M 87 260 L 219 260 L 219 334.839844 L 87 334.839844 Z M 87 260 " clip-rule="nonzero"/></clipPath></defs><path fill="#3f1d62" d="M 174.773438 163.894531 C 173.601562 163.894531 172.46875 163.675781 171.429688 163.230469 L 173.042969 159.496094 C 174.648438 160.191406 176.898438 159.78125 178.773438 158.441406 C 180.65625 157.09375 182.0625 155.097656 183.578125 152.816406 C 188.472656 145.449219 193.914062 136.582031 197.152344 126.628906 C 199.445312 119.566406 201.519531 108.894531 198.390625 98.160156 C 195.375 87.847656 187.753906 79.019531 177.992188 74.535156 C 168.230469 70.050781 156.5625 70.027344 146.777344 74.472656 C 137 78.917969 129.332031 87.71875 126.289062 98.015625 L 122.386719 96.859375 C 125.769531 85.445312 134.261719 75.691406 145.09375 70.761719 C 155.9375 65.84375 168.867188 65.867188 179.683594 70.832031 C 190.503906 75.796875 198.957031 85.582031 202.292969 97.011719 C 205 106.292969 204.5625 116.964844 201.015625 127.875 C 197.625 138.296875 192.007812 147.46875 186.960938 155.058594 C 185.285156 157.585938 183.570312 159.996094 181.128906 161.746094 C 179.15625 163.160156 176.898438 163.894531 174.757812 163.894531 Z M 174.773438 163.894531 " fill-opacity="1" fill-rule="nonzero"/><path fill="#3f1d62" d="M 150.480469 261.167969 L 150.351562 257.097656 L 195.613281 255.683594 L 222.773438 179.832031 C 223.613281 177.484375 225.941406 175.960938 228.433594 176.136719 L 308.003906 181.730469 L 307.71875 185.792969 L 228.152344 180.199219 C 227.46875 180.152344 226.835938 180.566406 226.605469 181.210938 L 198.511719 259.667969 Z M 150.480469 261.167969 " fill-opacity="1" fill-rule="nonzero"/><path fill="#3f1d62" d="M 105.722656 254.949219 C 104.40625 254.949219 103.089844 254.933594 101.777344 254.910156 L 101.820312 252.515625 C 114.023438 252.753906 126.320312 251.871094 138.363281 249.914062 L 138.746094 252.277344 C 127.855469 254.054688 116.761719 254.949219 105.722656 254.949219 Z M 105.722656 254.949219 " fill-opacity="1" fill-rule="nonzero"/><path fill="#3f1d62" d="M 150.824219 154.363281 C 144.078125 152.933594 137.566406 150.019531 131.996094 145.933594 L 133.410156 144.003906 C 138.707031 147.890625 144.894531 150.660156 151.320312 152.023438 Z M 150.824219 154.363281 " fill-opacity="1" fill-rule="nonzero"/><path fill="#3f1d62" d="M 158.542969 165.800781 C 148.140625 163.519531 137.988281 159.152344 129.179688 153.167969 L 131.0625 150.398438 C 139.523438 156.144531 149.273438 160.339844 159.265625 162.527344 Z M 158.542969 165.800781 " fill-opacity="1" fill-rule="nonzero"/><g clip-path="url(#363e133943)"><path fill="#3f1d62" d="M 71.148438 230.058594 C 54.417969 183.304688 48.183594 132.472656 53.109375 83.058594 L 53.460938 79.546875 L 185.039062 40.089844 L 186.5625 40.558594 C 270.066406 66.097656 311.996094 78.945312 312.347656 79.109375 L 315.324219 80.496094 L 315.394531 83.777344 C 316.074219 117.15625 314.0625 150.84375 309.402344 183.902344 L 298.976562 182.433594 C 303.375 151.179688 305.371094 119.359375 304.925781 87.785156 C 288.867188 82.859375 222.871094 62.667969 185.007812 51.09375 L 63.261719 87.601562 C 59.113281 134.371094 65.257812 182.320312 81.066406 226.511719 Z M 71.148438 230.058594 " fill-opacity="1" fill-rule="nonzero"/></g><path fill="#3f1d62" d="M 181.480469 331.503906 L 179.722656 330.796875 C 147.6875 317.945312 118.246094 297.878906 94.582031 272.75 L 102.25 265.53125 C 124.4375 289.085938 151.941406 308 181.878906 320.308594 C 208.074219 311.632812 232.214844 296.796875 251.785156 277.328125 C 271.667969 257.558594 286.910156 233.050781 295.847656 206.472656 L 305.832031 209.832031 C 296.367188 237.949219 280.246094 263.871094 259.214844 284.792969 C 238.011719 305.878906 211.757812 321.832031 183.28125 330.921875 L 181.472656 331.496094 Z M 181.480469 331.503906 " fill-opacity="1" fill-rule="nonzero"/><path fill="#3f1d62" d="M 186.316406 136.765625 C 183.410156 136.765625 180.488281 136.652344 177.570312 136.316406 C 170.792969 135.527344 165.015625 133.582031 160.394531 130.523438 C 156.546875 127.976562 153.886719 124.808594 152.699219 121.351562 C 151.183594 116.921875 152.339844 111.910156 155.523438 109.171875 C 157.847656 107.164062 160.726562 106.621094 162.738281 106.515625 C 165.101562 106.394531 167.359375 106.773438 169.660156 107.21875 C 170.769531 107.433594 171.878906 107.65625 172.988281 107.878906 C 177.082031 108.695312 181.3125 109.542969 185.476562 109.867188 C 191.320312 110.316406 196.355469 109.605469 200.425781 107.769531 L 202.101562 111.480469 C 197.402344 113.601562 191.703125 114.425781 185.160156 113.921875 C 180.753906 113.585938 176.402344 112.710938 172.1875 111.863281 C 171.085938 111.640625 169.988281 111.417969 168.886719 111.210938 C 166.84375 110.824219 164.855469 110.476562 162.945312 110.578125 C 161.574219 110.648438 159.632812 111 158.175781 112.246094 C 156.226562 113.929688 155.554688 117.125 156.546875 120.027344 C 157.671875 123.308594 160.480469 125.695312 162.636719 127.117188 C 166.722656 129.820312 171.902344 131.546875 178.039062 132.261719 C 183.632812 132.910156 189.429688 132.671875 195.039062 132.453125 L 195.199219 136.515625 C 192.277344 136.628906 189.300781 136.75 186.308594 136.75 Z M 186.316406 136.765625 " fill-opacity="1" fill-rule="nonzero"/><path fill="#3f1d62" d="M 176.09375 161.417969 C 168.324219 161.417969 160.167969 158.425781 153.488281 152.980469 C 146.730469 147.46875 141.269531 139.574219 137.253906 129.507812 L 141.03125 128 C 144.789062 137.417969 149.84375 144.761719 156.058594 149.828125 C 163.265625 155.703125 172.332031 158.378906 180.3125 156.996094 L 181.007812 161.003906 C 179.402344 161.28125 177.753906 161.417969 176.09375 161.417969 Z M 176.09375 161.417969 " fill-opacity="1" fill-rule="nonzero"/><path fill="#3f1d62" d="M 161.757812 176.046875 C 161.183594 176.046875 160.59375 176.015625 159.984375 175.960938 C 154.8125 175.480469 149.882812 173.566406 145.738281 170.4375 C 142.660156 168.121094 140.113281 165.203125 137.65625 162.382812 C 134.605469 158.878906 131.714844 155.570312 127.941406 153.382812 L 129.503906 150.691406 C 133.71875 153.132812 136.914062 156.796875 140 160.332031 C 142.355469 163.03125 144.789062 165.824219 147.613281 167.953125 C 151.246094 170.691406 155.746094 172.433594 160.273438 172.855469 C 162.253906 173.039062 165.84375 173.015625 167.585938 170.773438 C 168.519531 169.574219 168.84375 167.773438 168.484375 165.824219 C 168.125 163.894531 167.175781 162.023438 166.265625 160.207031 L 169.042969 158.808594 C 170.003906 160.722656 171.097656 162.886719 171.542969 165.25 C 172.070312 168.074219 171.527344 170.78125 170.050781 172.679688 C 168.34375 174.867188 165.445312 176.039062 161.765625 176.039062 Z M 161.757812 176.046875 " fill-opacity="1" fill-rule="nonzero"/><path fill="#3f1d62" d="M 132.011719 132.6875 C 122.640625 132.6875 115.019531 123.597656 115.019531 112.429688 C 115.019531 101.257812 122.640625 92.171875 132.011719 92.171875 C 141.382812 92.171875 149.003906 101.257812 149.003906 112.429688 C 149.003906 123.597656 141.382812 132.6875 132.011719 132.6875 Z M 132.011719 96.234375 C 124.882812 96.234375 119.089844 103.492188 119.089844 112.421875 C 119.089844 121.351562 124.886719 128.609375 132.011719 128.609375 C 139.132812 128.609375 144.933594 121.351562 144.933594 112.421875 C 144.933594 103.492188 139.132812 96.234375 132.011719 96.234375 Z M 132.011719 96.234375 " fill-opacity="1" fill-rule="nonzero"/><path fill="#3f1d62" d="M 97.757812 209.953125 C 96.265625 209.953125 94.773438 209.777344 93.304688 209.433594 C 81.492188 206.625 74.554688 193.105469 77.835938 179.296875 C 81.117188 165.488281 93.398438 156.542969 105.210938 159.351562 C 117.023438 162.160156 123.960938 175.679688 120.679688 189.488281 C 119.113281 196.089844 115.457031 201.804688 110.382812 205.578125 C 106.496094 208.46875 102.136719 209.960938 97.757812 209.960938 Z M 82.960938 180.515625 C 80.351562 191.5 85.539062 202.171875 94.523438 204.308594 C 98.792969 205.324219 103.304688 204.269531 107.246094 201.347656 C 111.324219 198.316406 114.277344 193.671875 115.5625 188.273438 C 118.171875 177.285156 112.984375 166.613281 104 164.476562 C 95.011719 162.34375 85.578125 169.535156 82.960938 180.519531 Z M 82.960938 180.515625 " fill-opacity="1" fill-rule="nonzero"/><path fill="#3f1d62" d="M 75.902344 242.378906 C 74.246094 228.046875 76.113281 213.351562 81.285156 199.886719 L 86.199219 201.773438 C 81.324219 214.453125 79.574219 228.285156 81.125 241.78125 L 75.894531 242.386719 Z M 75.902344 242.378906 " fill-opacity="1" fill-rule="nonzero"/><path fill="#3f1d62" d="M 107.484375 235.820312 L 102.402344 234.4375 C 104.988281 224.949219 106.199219 215.15625 105.984375 205.324219 L 111.246094 205.210938 C 111.46875 215.546875 110.207031 225.84375 107.484375 235.820312 Z M 107.484375 235.820312 " fill-opacity="1" fill-rule="nonzero"/><path fill="#3f1d62" d="M 82.097656 242.601562 L 79.503906 240.480469 C 82.425781 236.90625 86.464844 235.238281 89.335938 234.46875 C 92.457031 233.625 95.875 233.328125 100.421875 233.503906 C 106.136719 233.71875 111.898438 234.574219 117.46875 235.402344 C 127.078125 236.832031 136.160156 238.179688 145.285156 236.601562 L 145.851562 239.90625 C 136.195312 241.574219 126.425781 240.121094 116.96875 238.722656 C 111.492188 237.910156 105.824219 237.070312 100.292969 236.855469 C 96.097656 236.695312 92.984375 236.960938 90.199219 237.703125 C 87.804688 238.347656 84.453125 239.722656 82.089844 242.609375 Z M 82.097656 242.601562 " fill-opacity="1" fill-rule="nonzero"/><path fill="#3f1d62" d="M 94.988281 266.46875 C 92.902344 266.46875 90.820312 266.425781 88.738281 266.324219 L 88.890625 262.980469 C 105.753906 263.769531 123.089844 261.261719 139.027344 255.707031 L 140.128906 258.875 C 125.753906 263.878906 110.269531 266.476562 94.980469 266.476562 Z M 94.988281 266.46875 " fill-opacity="1" fill-rule="nonzero"/><path fill="#3f1d62" d="M 138.15625 260.488281 C 136.53125 252.246094 138.683594 243.402344 143.902344 236.832031 L 146.523438 238.914062 C 141.910156 244.726562 140.007812 252.554688 141.445312 259.84375 L 138.15625 260.496094 Z M 138.15625 260.488281 " fill-opacity="1" fill-rule="nonzero"/><path fill="#3f1d62" d="M 150.863281 256.546875 C 149.507812 253.1875 149.28125 249.417969 150.226562 245.929688 C 151.175781 242.433594 153.28125 239.296875 156.140625 237.082031 L 158.183594 239.738281 C 155.898438 241.507812 154.214844 244.015625 153.457031 246.800781 C 152.699219 249.59375 152.875 252.605469 153.960938 255.285156 L 150.855469 256.539062 Z M 150.863281 256.546875 " fill-opacity="1" fill-rule="nonzero"/><path fill="#3f1d62" d="M 186.066406 228.0625 L 182.214844 226.746094 C 186.667969 213.734375 190.890625 199.902344 189.316406 186.359375 C 188.78125 181.769531 187.65625 178.105469 185.875 175.152344 C 182.09375 168.882812 175.023438 165.175781 167.496094 161.625 L 169.234375 157.945312 C 177.351562 161.777344 184.992188 165.808594 189.363281 173.054688 C 191.449219 176.511719 192.75 180.710938 193.355469 185.890625 C 195.03125 200.285156 190.671875 214.621094 186.066406 228.070312 Z M 186.066406 228.0625 " fill-opacity="1" fill-rule="nonzero"/><path fill="#3f1d62" d="M 189.0625 216.816406 L 187.089844 213.257812 C 195.246094 208.738281 200.15625 199.121094 199.046875 189.863281 C 197.929688 180.605469 190.875 172.425781 181.886719 169.972656 L 182.957031 166.046875 C 193.5 168.929688 201.777344 178.523438 203.085938 189.382812 C 204.394531 200.238281 198.628906 211.523438 189.0625 216.824219 Z M 189.0625 216.816406 " fill-opacity="1" fill-rule="nonzero"/><path fill="#3f1d62" d="M 205.480469 229.066406 C 203.050781 221.191406 199.796875 213.542969 195.8125 206.328125 L 199.375 204.363281 C 203.492188 211.820312 206.859375 219.722656 209.367188 227.863281 Z M 205.480469 229.066406 " fill-opacity="1" fill-rule="nonzero"/><path fill="#3f1d62" d="M 187.21875 214.472656 L 191.007812 212.992188 L 202.292969 241.917969 L 198.5 243.398438 Z M 187.21875 214.472656 " fill-opacity="1" fill-rule="nonzero"/><path fill="#3f1d62" d="M 132.316406 240.773438 L 131.84375 237.449219 C 142.074219 235.980469 151.300781 235.738281 160.011719 236.714844 C 168.917969 233.503906 178.191406 231.191406 187.5625 229.855469 L 188.039062 233.175781 C 178.765625 234.496094 169.59375 236.792969 160.785156 240 L 160.410156 240.136719 L 160.019531 240.089844 C 151.484375 239.097656 142.417969 239.316406 132.324219 240.773438 Z M 132.316406 240.773438 " fill-opacity="1" fill-rule="nonzero"/><path fill="#3f1d62" d="M 149.089844 237.902344 L 150.574219 237.121094 L 149.082031 237.886719 C 147.230469 234.367188 145.308594 230.734375 143.496094 227 L 143.035156 226.050781 L 157.03125 208.492188 L 176.242188 209.722656 L 183.492188 230.496094 L 180.335938 231.597656 L 173.816406 212.929688 L 158.566406 211.949219 L 146.984375 226.488281 C 148.636719 229.847656 150.375 233.136719 152.058594 236.328125 L 150.578125 237.121094 L 149.097656 237.902344 Z M 149.089844 237.902344 " fill-opacity="1" fill-rule="nonzero"/><path fill="#3f1d62" d="M 105.355469 162.664062 L 103.472656 159.894531 C 111.214844 154.625 120.152344 151.050781 129.378906 149.527344 L 135.492188 131.402344 L 138.667969 132.472656 L 131.90625 152.535156 L 130.886719 152.6875 C 121.804688 154.035156 112.976562 157.484375 105.363281 162.664062 Z M 105.355469 162.664062 " fill-opacity="1" fill-rule="nonzero"/><path fill="#3f1d62" d="M 166.816406 111.808594 C 165.398438 102.007812 162.882812 94.800781 158.894531 89.132812 C 153.953125 82.101562 146.363281 77.761719 139.097656 77.816406 L 139.082031 75.660156 C 139.125 75.660156 139.171875 75.660156 139.210938 75.660156 C 147.128906 75.660156 155.339844 80.335938 160.648438 87.894531 C 164.839844 93.84375 167.472656 101.351562 168.941406 111.503906 L 166.808594 111.808594 Z M 166.816406 111.808594 " fill-opacity="1" fill-rule="nonzero"/><path fill="#3f1d62" d="M 120.449219 157.523438 L 123.074219 156.261719 L 124.527344 159.28125 L 121.898438 160.542969 Z M 120.449219 157.523438 " fill-opacity="1" fill-rule="nonzero"/><path fill="#3f1d62" d="M 168.582031 181.921875 L 167.242188 180.375 " fill-opacity="1" fill-rule="nonzero"/><path fill="#3f1d62" d="M 138.039062 113.730469 C 138.039062 114.40625 137.992188 115.074219 137.894531 115.738281 C 137.800781 116.398438 137.65625 117.042969 137.464844 117.667969 C 137.277344 118.292969 137.046875 118.886719 136.769531 119.445312 C 136.496094 120.007812 136.183594 120.527344 135.832031 121.007812 C 135.484375 121.484375 135.101562 121.910156 134.691406 122.285156 C 134.28125 122.660156 133.84375 122.976562 133.386719 123.238281 C 132.929688 123.496094 132.460938 123.691406 131.972656 123.824219 C 131.488281 123.953125 131 124.019531 130.503906 124.019531 C 130.007812 124.019531 129.519531 123.953125 129.035156 123.824219 C 128.546875 123.691406 128.078125 123.496094 127.621094 123.238281 C 127.164062 122.976562 126.730469 122.660156 126.316406 122.285156 C 125.90625 121.910156 125.527344 121.484375 125.175781 121.007812 C 124.824219 120.527344 124.511719 120.007812 124.238281 119.445312 C 123.964844 118.886719 123.730469 118.292969 123.542969 117.667969 C 123.351562 117.042969 123.210938 116.398438 123.113281 115.738281 C 123.015625 115.074219 122.96875 114.40625 122.96875 113.730469 C 122.96875 113.054688 123.015625 112.386719 123.113281 111.722656 C 123.210938 111.058594 123.351562 110.417969 123.542969 109.792969 C 123.730469 109.167969 123.964844 108.574219 124.238281 108.011719 C 124.511719 107.449219 124.824219 106.929688 125.175781 106.453125 C 125.527344 105.976562 125.90625 105.550781 126.316406 105.171875 C 126.730469 104.796875 127.164062 104.480469 127.621094 104.222656 C 128.078125 103.964844 128.546875 103.769531 129.035156 103.636719 C 129.519531 103.503906 130.007812 103.441406 130.503906 103.441406 C 131 103.441406 131.488281 103.503906 131.972656 103.636719 C 132.460938 103.769531 132.929688 103.964844 133.386719 104.222656 C 133.84375 104.480469 134.28125 104.796875 134.691406 105.171875 C 135.101562 105.550781 135.484375 105.976562 135.832031 106.453125 C 136.183594 106.929688 136.496094 107.449219 136.769531 108.011719 C 137.046875 108.574219 137.277344 109.167969 137.464844 109.792969 C 137.65625 110.417969 137.800781 111.058594 137.894531 111.722656 C 137.992188 112.386719 138.039062 113.054688 138.039062 113.730469 Z M 138.039062 113.730469 " fill-opacity="1" fill-rule="nonzero"/><path fill="#3f1d62" d="M 200.761719 114.128906 C 196.777344 115.566406 192.773438 117.019531 188.621094 117.847656 C 184.464844 118.671875 180.113281 118.863281 176.011719 117.792969 C 171.910156 116.722656 168.070312 114.296875 165.8125 110.714844 C 171.4375 110.308594 177.082031 110.609375 182.714844 110.914062 C 189.164062 111.257812 195.605469 111.601562 202.054688 111.953125 C 201.71875 112.484375 201.390625 113.003906 200.761719 114.136719 Z M 200.761719 114.128906 " fill-opacity="1" fill-rule="nonzero"/><path fill="#3f1d62" d="M 196.515625 114.121094 C 196.515625 114.121094 191.3125 133.1875 191.058594 133.476562 C 187.28125 134.632812 183.234375 134.769531 179.316406 134.242188 C 175.398438 133.714844 171.589844 132.550781 167.894531 131.152344 C 164.804688 129.980469 161.6875 128.585938 159.433594 126.179688 C 157.695312 124.328125 156.5625 121.96875 155.914062 119.523438 C 155.429688 117.691406 155.207031 115.71875 155.820312 113.929688 C 156.601562 111.65625 158.675781 109.980469 160.960938 109.253906 C 163.25 108.527344 165.734375 108.65625 168.09375 109.15625 C 170.449219 109.652344 172.699219 110.5 174.992188 111.226562 C 179.84375 112.75 184.917969 113.699219 189.996094 113.523438 C 191.199219 113.476562 192.40625 113.378906 193.601562 113.546875 C 194.792969 113.714844 195.988281 114.203125 196.523438 114.128906 Z M 196.515625 114.121094 " fill-opacity="1" fill-rule="nonzero"/><path fill="#3f1d62" d="M 173.648438 143.277344 L 172.699219 146.261719 L 184.066406 147.417969 L 185.199219 144.410156 Z M 173.648438 143.277344 " fill-opacity="1" fill-rule="nonzero"/><path fill="#3f1d62" d="M 136.011719 130.804688 L 136.664062 136.933594 C 136.410156 135.855469 136.160156 134.785156 135.90625 133.707031 C 138.652344 140.085938 141.757812 146.308594 145.203125 152.335938 C 144.804688 151.921875 144.398438 151.515625 144 151.105469 C 144.121094 150.929688 144.238281 150.753906 144.359375 150.570312 C 144.574219 150.730469 144.796875 150.882812 145.011719 151.042969 C 148.691406 155.019531 152.371094 159.007812 156.125 162.917969 C 157.121094 164.460938 157.632812 166.3125 157.597656 168.148438 C 157.582031 168.714844 157.480469 169.351562 157.023438 169.679688 C 156.523438 170.039062 155.835938 169.878906 155.253906 169.695312 C 148.4375 167.523438 142.339844 163.160156 138.085938 157.417969 C 142.101562 165.242188 149.441406 171.300781 157.894531 173.75 C 160.601562 174.539062 163.609375 174.945312 166.15625 173.726562 C 168.636719 172.550781 170.273438 169.894531 170.503906 167.15625 C 170.730469 164.417969 169.644531 161.65625 167.839844 159.589844 C 168.230469 159.175781 168.980469 159.175781 169.363281 159.589844 C 157.222656 154.46875 147.074219 144.777344 141.398438 132.878906 C 141.046875 132.136719 140.703125 131.378906 140.160156 130.769531 C 139.617188 130.15625 138.835938 129.695312 138.015625 129.757812 C 137.199219 129.820312 136.425781 130.539062 136.027344 130.792969 Z M 136.011719 130.804688 " fill-opacity="1" fill-rule="nonzero"/><path fill="#3f1d62" d="M 133.679688 153.980469 C 135.332031 148.257812 136.984375 142.535156 138.636719 136.8125 C 138.460938 136.308594 138.269531 135.78125 137.886719 135.40625 C 137.503906 135.03125 136.871094 134.863281 136.425781 135.160156 C 136.128906 135.367188 135.988281 135.734375 135.867188 136.078125 C 134.414062 140.210938 132.960938 144.332031 131.5 148.464844 C 131.140625 149.480469 130.78125 150.546875 130.933594 151.609375 C 131.085938 152.671875 131.949219 153.71875 133.671875 153.980469 Z M 133.679688 153.980469 " fill-opacity="1" fill-rule="nonzero"/><path fill="#3f1d62" d="M 134 147.578125 C 140.496094 152.066406 147.679688 155.570312 155.222656 157.929688 C 152.980469 155.769531 150.6875 153.566406 147.871094 152.25 C 145.738281 151.25 143.386719 150.796875 141.148438 150.03125 C 138.914062 149.277344 136.679688 148.121094 134 147.578125 Z M 134 147.578125 " fill-opacity="1" fill-rule="nonzero"/><path fill="#3f1d62" d="M 136.816406 157.8125 C 137.253906 158.777344 137.878906 159.65625 138.652344 160.382812 C 138.835938 160.554688 139.035156 160.722656 139.28125 160.773438 C 139.523438 160.828125 139.816406 160.714844 139.890625 160.476562 C 139.953125 160.277344 139.847656 160.0625 139.738281 159.878906 C 139.488281 159.4375 139.234375 158.992188 138.980469 158.546875 C 138.691406 158.042969 138.371094 157.507812 137.832031 157.277344 C 137.296875 157.046875 136.585938 157.308594 136.816406 157.8125 Z M 136.816406 157.8125 " fill-opacity="1" fill-rule="nonzero"/><path fill="#3f1d62" d="M 108.792969 163.238281 C 115.449219 158.539062 123.289062 155.519531 131.375 154.539062 C 131.523438 153.191406 130.304688 152.007812 128.980469 151.699219 C 127.660156 151.394531 126.289062 151.746094 124.980469 152.105469 C 117.71875 154.101562 110.261719 156.589844 104.882812 161.859375 C 106.402344 162.097656 107.925781 162.335938 108.785156 163.238281 Z M 108.792969 163.238281 " fill-opacity="1" fill-rule="nonzero"/><path fill="#3f1d62" d="M 110.613281 157.8125 C 119.960938 162.65625 126.945312 171.851562 129.089844 182.167969 C 131.230469 192.480469 128.515625 203.695312 121.875 211.875 C 118.777344 210.613281 115.683594 209.34375 112.585938 208.078125 C 111.371094 207.582031 109.976562 206.871094 109.792969 205.5625 C 109.585938 204.101562 111.03125 203.015625 112.148438 202.050781 C 116.089844 198.667969 117.542969 193.269531 118.5 188.171875 C 119.171875 184.570312 119.703125 180.875 119.179688 177.238281 C 118.652344 173.605469 116.941406 170.007812 113.917969 167.929688 C 112.699219 167.09375 111.316406 166.527344 110.152344 165.617188 C 108.992188 164.707031 108.042969 163.316406 108.25 161.851562 C 108.453125 160.390625 110.261719 159.230469 110.613281 157.820312 Z M 110.613281 157.8125 " fill-opacity="1" fill-rule="nonzero"/><path fill="#3f1d62" d="M 108.484375 224.765625 C 112.058594 228.621094 115.285156 232.785156 118.140625 237.191406 C 117.644531 237.535156 116.878906 237.40625 116.519531 236.921875 C 124.253906 238.070312 131.980469 239.210938 139.714844 240.359375 C 138.554688 238.316406 137.773438 236.058594 137.4375 233.742188 L 145.394531 229.339844 C 145.394531 229.339844 145.429688 224.71875 145.164062 225.011719 C 134.917969 220.359375 126.855469 211.148438 123.589844 200.390625 C 120.574219 203.097656 116.386719 204.46875 112.347656 204.0625 C 111.09375 203.941406 109.664062 203.703125 108.714844 204.53125 C 107.675781 205.433594 107.835938 207.054688 108.027344 208.425781 C 108.746094 213.6875 108.546875 219.074219 108.484375 224.773438 Z M 108.484375 224.765625 " fill-opacity="1" fill-rule="nonzero"/><path fill="#3f1d62" d="M 139.554688 227.863281 C 144.558594 221.429688 149.5625 214.996094 154.566406 208.5625 L 176.476562 209.304688 L 176.457031 211.1875 L 156.316406 212.066406 L 145.035156 227.054688 L 139.546875 227.863281 Z M 139.554688 227.863281 " fill-opacity="1" fill-rule="nonzero"/><path fill="#3f1d62" d="M 86.015625 189.097656 C 87.363281 191.226562 89.902344 192.417969 92.417969 192.511719 C 94.9375 192.601562 97.40625 191.683594 99.519531 190.328125 C 102.746094 188.265625 105.339844 184.964844 105.851562 181.164062 C 106.367188 177.363281 104.429688 173.167969 100.894531 171.683594 C 104.867188 171.984375 108.109375 175.5625 108.761719 179.488281 C 109.410156 183.414062 107.84375 187.476562 105.316406 190.550781 C 103.605469 192.632812 101.421875 194.378906 98.890625 195.308594 C 96.359375 196.242188 93.472656 196.320312 90.996094 195.257812 C 88.515625 194.195312 86.527344 191.921875 86.015625 189.089844 Z M 86.015625 189.097656 " fill-opacity="1" fill-rule="nonzero"/><path fill="#3f1d62" d="M 85.035156 236.976562 C 85.15625 226.464844 85.984375 215.960938 87.507812 205.554688 C 87.773438 212.617188 88.050781 219.6875 88.316406 226.746094 C 88.425781 229.632812 88.585938 232.667969 90.136719 235.101562 C 88.332031 235.484375 86.65625 236.433594 85.035156 236.976562 Z M 85.035156 236.976562 " fill-opacity="1" fill-rule="nonzero"/><path fill="#3f1d62" d="M 77.667969 239.324219 C 79.457031 239.492188 81.25 239.664062 83.039062 239.824219 L 82.402344 239.992188 C 79.992188 229.617188 81.546875 218.777344 83.113281 208.242188 C 78.921875 217.878906 77.222656 228.589844 77.675781 239.324219 Z M 77.667969 239.324219 " fill-opacity="1" fill-rule="nonzero"/><path fill="#3f1d62" d="M 77.429688 241.007812 C 74.828125 244.726562 73.4375 249.277344 73.503906 253.816406 C 73.550781 256.683594 74.1875 259.585938 75.640625 262.0625 C 77.09375 264.542969 79.417969 266.554688 82.175781 267.351562 C 84.929688 268.144531 88.109375 267.609375 90.269531 265.722656 C 86.933594 265.199219 83.335938 264.550781 81.003906 262.109375 C 79.671875 260.726562 78.890625 258.867188 78.601562 256.960938 C 78.308594 255.054688 78.5 253.113281 78.921875 251.230469 C 79.382812 249.179688 80.148438 247.128906 81.585938 245.597656 C 83.03125 244.070312 85.257812 243.160156 87.285156 243.710938 C 88.867188 244.136719 90.136719 245.40625 90.867188 246.882812 C 91.59375 248.359375 91.820312 250.027344 91.851562 251.675781 C 91.90625 254.429688 91.371094 257.320312 89.632812 259.460938 C 87.898438 261.605469 84.761719 262.761719 82.265625 261.605469 C 80.988281 261.015625 80.007812 259.898438 79.328125 258.675781 C 78.648438 257.449219 78.226562 256.089844 77.8125 254.742188 C 77.957031 258.199219 79.152344 261.742188 81.699219 264.082031 C 84.246094 266.425781 88.292969 267.273438 91.292969 265.53125 L 90.886719 266.265625 C 93.8125 263.289062 95.753906 259.378906 96.375 255.253906 C 96.992188 251.128906 96.273438 246.824219 94.363281 243.121094 C 93.496094 241.453125 92.3125 239.832031 90.605469 239.050781 C 88.824219 238.230469 86.757812 238.4375 84.8125 238.660156 C 83.574219 238.796875 82.320312 238.941406 81.148438 239.378906 C 79.976562 239.816406 78.882812 240.582031 77.445312 241.015625 Z M 77.429688 241.007812 " fill-opacity="1" fill-rule="nonzero"/><path fill="#3f1d62" d="M 91.277344 242.628906 C 93.207031 240.105469 96.222656 238.589844 99.328125 237.941406 C 102.433594 237.289062 105.648438 237.429688 108.808594 237.695312 C 111.964844 237.964844 115.132812 238.375 118.300781 238.253906 C 112.410156 236.746094 106.441406 235.515625 100.40625 234.859375 C 97.890625 234.582031 95.339844 234.414062 92.839844 234.765625 C 90.335938 235.117188 87.859375 236.027344 85.953125 237.695312 C 85.480469 238.109375 85.011719 238.730469 85.265625 239.308594 C 85.425781 239.683594 85.832031 239.875 86.199219 240.035156 C 87.742188 240.710938 89.28125 241.382812 91.277344 242.628906 Z M 91.277344 242.628906 " fill-opacity="1" fill-rule="nonzero"/><path fill="#3f1d62" d="M 73.957031 227.519531 C 71.738281 224.964844 69.804688 222.164062 68.203125 219.179688 C 70.421875 228.308594 73.414062 237.253906 77.117188 245.882812 C 78.882812 239.792969 78.507812 233.113281 76.085938 227.253906 C 75.863281 226.726562 75.585938 226.160156 75.058594 225.929688 C 74.53125 225.699219 73.757812 226.113281 73.957031 227.519531 Z M 73.957031 227.519531 " fill-opacity="1" fill-rule="nonzero"/><path fill="#3f1d62" d="M 180.960938 233.382812 C 187.96875 237.824219 194.128906 243.601562 199.023438 250.304688 C 200.195312 248.300781 201.410156 246.121094 201.183594 243.808594 C 201 241.980469 199.941406 240.382812 198.957031 238.828125 C 194.382812 231.613281 190.855469 223.742188 188.503906 215.53125 C 187.050781 218.445312 185.597656 221.363281 184.152344 224.277344 C 184.625 222.929688 185.101562 221.589844 185.574219 220.246094 C 184.765625 223.367188 183.089844 226.25 180.785156 228.507812 L 180.632812 227.527344 C 180.992188 229.523438 181.351562 231.523438 180.960938 233.382812 Z M 180.960938 233.382812 " fill-opacity="1" fill-rule="nonzero"/><path fill="#3f1d62" d="M 162.945312 238.023438 C 160.210938 239.691406 157.550781 241.726562 156.121094 244.589844 C 154.6875 247.449219 154.8125 251.300781 157.160156 253.472656 C 159.019531 255.191406 161.925781 255.507812 164.289062 254.589844 C 166.65625 253.671875 168.5 251.695312 169.675781 249.449219 C 173.554688 251.710938 177.425781 253.96875 181.304688 256.234375 C 180.984375 256.480469 180.65625 256.722656 180.335938 256.976562 C 181.605469 257.226562 182.875 257.480469 184.144531 257.734375 C 173.121094 258.828125 162.035156 259.226562 150.960938 258.925781 C 151.367188 255.957031 151.214844 252.9375 151.429688 249.945312 C 151.644531 246.953125 152.292969 243.886719 154.097656 241.484375 C 155.90625 239.082031 159.082031 237.535156 162.953125 238.015625 Z M 162.945312 238.023438 " fill-opacity="1" fill-rule="nonzero"/><path fill="#3f1d62" d="M 189.570312 257.191406 C 183.875 252.445312 178.183594 247.703125 172.5 242.960938 C 180.027344 247.582031 187.21875 252.746094 194.007812 258.40625 C 192.125 258.125 190.289062 257.785156 189.578125 257.199219 Z M 189.570312 257.191406 " fill-opacity="1" fill-rule="nonzero"/><path fill="#3f1d62" d="M 196.523438 257.464844 C 191.175781 250.050781 184.382812 243.671875 176.644531 238.796875 C 183.066406 241.117188 188.917969 245.019531 193.523438 250.050781 C 194.175781 250.761719 194.871094 251.535156 195.8125 251.726562 C 196.898438 251.949219 198.007812 251.300781 198.65625 250.394531 C 199.308594 249.492188 199.589844 248.398438 199.859375 247.328125 C 199.660156 251.109375 198.207031 254.804688 196.515625 257.464844 Z M 196.523438 257.464844 " fill-opacity="1" fill-rule="nonzero"/><path fill="#3f1d62" d="M 281.476562 192.417969 L 247.507812 230.214844 L 295.195312 193.695312 L 277.964844 220.289062 L 236.054688 251.136719 L 251.121094 249.347656 L 271.882812 222.992188 L 291.914062 197.183594 L 294.828125 193.972656 C 294.828125 193.972656 269.902344 248.796875 269.824219 248.84375 C 268.546875 250.726562 267.796875 252.914062 266.695312 254.902344 C 265.59375 256.890625 263.996094 258.789062 261.800781 259.402344 L 207.546875 260.9375 L 214.152344 239.992188 L 281.46875 192.410156 Z M 281.476562 192.417969 " fill-opacity="1" fill-rule="nonzero"/><path fill="#3f1d62" d="M 262.472656 170.84375 C 272.535156 161.074219 282.734375 151.457031 293.070312 141.976562 C 291.96875 151.539062 290.867188 161.105469 289.570312 170.644531 Z M 262.472656 170.84375 " fill-opacity="1" fill-rule="nonzero"/><path fill="#3f1d62" d="M 236.902344 167.546875 C 242.136719 166.246094 247.371094 164.945312 252.542969 163.597656 C 265.371094 151.691406 279.066406 140.714844 293.472656 130.769531 C 274.164062 140.117188 255.527344 151.3125 236.902344 167.546875 Z M 236.902344 167.546875 " fill-opacity="1" fill-rule="nonzero"/><path fill="#3f1d62" d="M 240.945312 143.101562 C 247.691406 140.070312 254.90625 138.074219 262.121094 136.941406 C 272.878906 130.132812 283.644531 123.332031 294.398438 116.523438 C 277.339844 122.015625 261.035156 129.851562 246.085938 139.734375 " fill-opacity="1" fill-rule="nonzero"/><path fill="#3f1d62" d="M 205.628906 150.40625 C 212.078125 148.886719 218.519531 147.363281 224.914062 145.742188 C 232.4375 139.621094 240.714844 134.425781 249.496094 130.308594 C 233.851562 134.105469 218.976562 141.082031 205.636719 150.40625 Z M 205.628906 150.40625 " fill-opacity="1" fill-rule="nonzero"/><path fill="#3f1d62" d="M 237.195312 128.304688 C 245.953125 124.9375 255.167969 122.734375 264.507812 121.761719 C 274.171875 115.765625 284.15625 110.28125 294.40625 105.351562 C 276.246094 110.257812 258.601562 117.074219 237.195312 128.3125 Z M 237.195312 128.304688 " fill-opacity="1" fill-rule="nonzero"/><path fill="#3f1d62" d="M 214.066406 119.925781 C 220.699219 118.855469 227.46875 118.640625 234.21875 119.390625 C 247.210938 112.972656 260.742188 107.664062 274.628906 103.53125 C 254.433594 106.621094 234.664062 112.445312 214.074219 119.917969 Z M 214.066406 119.925781 " fill-opacity="1" fill-rule="nonzero"/><path fill="#3f1d62" d="M 230.132812 102.191406 C 236.332031 101.496094 242.574219 101.144531 248.914062 101.328125 C 257.90625 96.882812 267.179688 93.019531 276.664062 89.761719 C 261.683594 92.308594 246.957031 96.394531 230.132812 102.191406 Z M 230.132812 102.191406 " fill-opacity="1" fill-rule="nonzero"/><path fill="#3f1d62" d="M 218.742188 160.199219 C 222.375 159.964844 226 159.726562 229.5 159.328125 C 236.148438 154.011719 243.523438 149.613281 251.347656 146.277344 C 239.949219 149.636719 228.976562 154.449219 218.742188 160.191406 Z M 218.742188 160.199219 " fill-opacity="1" fill-rule="nonzero"/><path fill="#3f1d62" d="M 217.898438 90.6875 C 221.894531 89.828125 226.03125 89.644531 230.0625 90.074219 C 238.671875 85.84375 247.570312 82.207031 256.671875 79.210938 C 243.300781 81.152344 230.203125 85.007812 217.898438 90.6875 Z M 217.898438 90.6875 " fill-opacity="1" fill-rule="nonzero"/><path fill="#3f1d62" d="M 76.574219 98.894531 C 76.375 101.617188 76.175781 104.34375 75.976562 107.066406 C 89.21875 98.917969 102.746094 91.230469 116.527344 84.023438 C 103.238281 88.644531 89.894531 93.277344 76.574219 98.894531 Z M 76.574219 98.894531 " fill-opacity="1" fill-rule="nonzero"/><path fill="#3f1d62" d="M 75.464844 114.886719 L 75.464844 124.328125 C 86.949219 116.546875 99.050781 109.667969 111.605469 103.769531 C 99.464844 106.882812 87.539062 110.808594 75.464844 114.878906 Z M 75.464844 114.886719 " fill-opacity="1" fill-rule="nonzero"/><path fill="#3f1d62" d="M 75.640625 131.753906 C 75.671875 134.648438 75.703125 137.546875 75.730469 140.4375 C 85.96875 133.0625 96.273438 125.648438 107.636719 120.148438 C 96.609375 123.210938 85.847656 127.234375 75.640625 131.753906 Z M 75.640625 131.753906 " fill-opacity="1" fill-rule="nonzero"/><path fill="#3f1d62" d="M 76.742188 149.636719 C 76.871094 152.558594 77.003906 155.480469 77.132812 158.402344 C 87.714844 149.039062 100.46875 142.542969 113.066406 136.148438 C 100.78125 140.253906 88.625 144.769531 76.742188 149.644531 Z M 76.742188 149.636719 " fill-opacity="1" fill-rule="nonzero"/><path fill="#3f1d62" d="M 306.472656 180.683594 C 297.742188 202.914062 288.1875 224.835938 277.84375 246.363281 C 285.671875 237.832031 290.796875 227.238281 295.808594 216.808594 C 293.78125 222.667969 291.746094 228.53125 289.710938 234.398438 C 293.246094 228.15625 296.78125 221.914062 300.3125 215.667969 C 299.496094 218.210938 298.667969 220.75 297.851562 223.289062 C 299.921875 219.058594 302.003906 214.828125 304.078125 210.597656 C 302.011719 215.800781 299.945312 221 297.882812 226.203125 C 299.855469 222.097656 301.820312 217.988281 303.796875 213.886719 C 302.890625 216.671875 301.980469 219.457031 301.078125 222.25 C 306.925781 210.070312 310.726562 190.582031 313.617188 174.515625 C 316.511719 158.449219 316.089844 113.851562 313.382812 97.753906 C 309.703125 115.949219 312.992188 164.066406 306.464844 180.691406 Z M 306.472656 180.683594 " fill-opacity="1" fill-rule="nonzero"/><g clip-path="url(#61385a67c5)"><path fill="#3f1d62" d="M 256.957031 278.835938 C 284.652344 261.105469 307.78125 236.304688 323.519531 207.4375 C 312.65625 240.183594 292.035156 269.628906 264.976562 291.03125 C 283.144531 282.070312 297.589844 267.183594 311.636719 252.585938 C 293.480469 281.511719 267.339844 306.484375 235.082031 317.714844 C 218.917969 323.347656 201.757812 325.398438 184.757812 327.410156 C 211.757812 314.960938 233.378906 293.921875 256.949219 278.835938 Z M 256.957031 278.835938 " fill-opacity="1" fill-rule="nonzero"/></g><g clip-path="url(#d04ad71949)"><path fill="#3f1d62" d="M 87.324219 265.199219 C 112.863281 296.53125 146.769531 320.984375 184.765625 334.898438 C 196.4375 328.941406 207.761719 322.277344 218.640625 314.96875 C 206.746094 319 194.839844 323.027344 182.941406 327.058594 C 187.96875 324.507812 193.003906 321.96875 198.03125 319.421875 C 196.226562 320.84375 194.425781 322.261719 192.621094 323.683594 C 161.519531 314.019531 133.089844 295.925781 111.164062 271.847656 C 119.960938 269.578125 128.769531 267.296875 137.566406 265.023438 C 136.328125 265.542969 134.765625 265.164062 133.902344 264.121094 C 133.035156 263.082031 132.953125 261.480469 133.6875 260.359375 C 118.507812 262.636719 103.222656 264.167969 87.316406 265.191406 Z M 87.324219 265.199219 " fill-opacity="1" fill-rule="nonzero"/></g><path fill="#3f1d62" d="M 193.234375 269.796875 C 190.617188 270.164062 188.046875 270.816406 185.566406 271.726562 C 182.597656 272.277344 179.492188 272.148438 176.484375 271.550781 C 182.492188 272.8125 188.605469 273.539062 194.734375 273.722656 C 196.761719 281.296875 197.695312 289.171875 197.503906 297.003906 C 197.433594 299.722656 197.449219 302.917969 199.628906 304.535156 C 196.578125 305.710938 193.523438 306.882812 190.664062 307.363281 C 190.234375 299.898438 188.988281 292.476562 186.945312 285.277344 C 186.261719 282.859375 185.398438 280.339844 183.492188 278.710938 C 181.703125 277.183594 179.269531 276.683594 176.953125 276.285156 C 165.132812 274.226562 153.144531 273.15625 141.148438 273.097656 C 142.117188 271.105469 142.125 268.667969 141.167969 266.667969 C 158.691406 266.074219 176.265625 267.367188 193.242188 269.804688 Z M 193.234375 269.796875 " fill-opacity="1" fill-rule="nonzero"/><path fill="#3f1d62" d="M 192.699219 275.054688 C 197.785156 277.28125 200.777344 282.539062 203.101562 287.585938 C 216.179688 281.625 229.757812 276.792969 243.316406 272.214844 C 220.441406 269.90625 197.394531 269.316406 174.425781 270.464844 C 174.679688 271.71875 175.707031 272.789062 177.511719 273.699219 C 183.851562 275.382812 190.546875 275.757812 192.699219 275.0625 Z M 192.699219 275.054688 " fill-opacity="1" fill-rule="nonzero"/><path fill="#3f1d62" d="M 261.148438 273.441406 C 246.925781 273.632812 232.703125 273.816406 218.480469 274.007812 L 220.699219 274.214844 C 201.648438 273.148438 182.589844 272.078125 163.539062 271.015625 C 156.59375 270.625 149.609375 270.234375 142.699219 271.039062 C 143.726562 269.246094 144.078125 267.082031 143.671875 265.0625 C 184.992188 266.089844 226.355469 265.773438 267.652344 264.128906 C 266.75 265.820312 265.847656 267.511719 261.148438 273.441406 Z M 261.148438 273.441406 " fill-opacity="1" fill-rule="nonzero"/><path fill="#3f1d62" d="M 236.523438 271.296875 C 223.746094 281.75 210.570312 291.710938 197.042969 301.167969 C 196.707031 300.058594 196.363281 298.957031 196.027344 297.847656 C 195.574219 299.574219 195.121094 301.304688 194.671875 303.042969 C 193.929688 304.128906 193.1875 305.214844 192.445312 306.300781 C 192.078125 306.523438 191.710938 306.753906 191.351562 306.972656 C 192.4375 305.71875 193.523438 304.464844 194.609375 303.210938 C 193.203125 304.394531 191.796875 305.582031 190.449219 306.722656 C 184.433594 298.863281 180.210938 289.179688 171.910156 283.800781 C 163.148438 278.128906 151.6875 278.496094 142.433594 273.691406 C 148.292969 272.707031 154.152344 271.710938 160.019531 270.722656 C 157.039062 270.058594 154.054688 269.386719 151.070312 268.71875 C 151.75 268.183594 152.84375 268.285156 153.417969 268.925781 C 153.1875 269.523438 152.636719 269.988281 152.011719 270.113281 C 151.859375 266.5625 151.710938 263.011719 151.558594 259.460938 C 143.847656 258.726562 135.921875 260.449219 129.203125 264.304688 C 127.3125 264.304688 125.417969 264.304688 123.527344 264.296875 C 141.910156 283.921875 166.25 296.714844 190.21875 309.09375 C 211.273438 302.324219 231.363281 292.550781 249.628906 279.445312 L 247.171875 280.625 C 250.613281 277.351562 254.140625 274.023438 258.449219 272.015625 C 253.558594 271.703125 248.664062 271.398438 243.773438 271.085938 C 241.304688 270.929688 238.28125 269.859375 236.535156 271.289062 Z M 236.523438 271.296875 " fill-opacity="1" fill-rule="nonzero"/><path fill="#3f1d62" d="M 242.605469 281.941406 C 247.46875 280.617188 252.535156 279.1875 256.261719 275.789062 C 256.820312 275.277344 257.363281 274.703125 257.597656 273.984375 C 257.835938 273.265625 257.714844 272.378906 257.117188 271.902344 C 256.335938 271.28125 255.195312 271.628906 254.269531 272.003906 C 251.808594 272.988281 249.3125 273.992188 247.179688 275.574219 C 245.042969 277.160156 243.269531 279.394531 242.597656 281.949219 Z M 242.605469 281.941406 " fill-opacity="1" fill-rule="nonzero"/><path fill="#3f1d62" d="M 145.597656 263.441406 C 148.714844 262.011719 151.445312 259.753906 153.449219 256.976562 L 153.449219 258.140625 C 153.363281 256.480469 153.28125 254.824219 153.195312 253.164062 L 153.800781 254.273438 C 148.765625 253.425781 143.511719 253.976562 138.765625 255.859375 C 139.027344 255.492188 139.648438 255.46875 139.9375 255.820312 C 138.429688 258.023438 136.066406 259.628906 133.464844 260.234375 C 132.609375 260.433594 131.714844 260.535156 130.941406 260.953125 C 130.167969 261.375 129.5625 262.261719 129.792969 263.113281 C 130.113281 264.296875 131.675781 264.542969 132.90625 264.488281 C 137.832031 264.28125 142.722656 263.128906 145.597656 263.457031 Z M 145.597656 263.441406 " fill-opacity="1" fill-rule="nonzero"/><path fill="#3f1d62" d="M 76.398438 273.195312 C 78.210938 274.863281 80.015625 276.53125 81.828125 278.199219 C 73.84375 281.429688 66.382812 285.964844 59.839844 291.574219 C 65.128906 284.359375 71.195312 277.710938 76.398438 273.195312 Z M 76.398438 273.195312 " fill-opacity="1" fill-rule="nonzero"/><path fill="#3f1d62" d="M 89.878906 283.699219 L 95.234375 289.085938 C 84.070312 294.402344 73.359375 300.667969 63.253906 307.808594 C 71.457031 298.359375 80.851562 289.957031 89.878906 283.699219 Z M 89.878906 283.699219 " fill-opacity="1" fill-rule="nonzero"/><path fill="#3f1d62" d="M 104.515625 296.753906 C 107.03125 298.535156 109.546875 300.324219 112.066406 302.109375 C 99.320312 308.007812 87.007812 314.847656 75.273438 322.558594 C 84.777344 313.515625 94.949219 305.183594 104.515625 296.753906 Z M 104.515625 296.753906 " fill-opacity="1" fill-rule="nonzero"/></svg>